<?xml version="1.0" standalone="no"?>
<!DOCTYPE svg PUBLIC "-//W3C//DTD SVG 20010904//EN"
 "http://www.w3.org/TR/2001/REC-SVG-20010904/DTD/svg10.dtd">
<svg version="1.0" xmlns="http://www.w3.org/2000/svg"
 width="794.000000pt" height="794.000000pt" viewBox="0 0 794.000000 794.000000"
 preserveAspectRatio="xMidYMid meet">

<g transform="translate(0.000000,794.000000) scale(0.100000,-0.100000)"
fill="#000000" stroke="none">
<path d="M0 3970 l0 -3970 3970 0 3970 0 0 3970 0 3970 -3970 0 -3970 0 0
-3970z m3770 1704 c212 -2 403 -8 425 -13 41 -9 162 -57 180 -71 6 -4 21 -11
35 -15 14 -4 39 -18 57 -31 17 -13 36 -24 42 -24 6 0 11 -4 11 -10 0 -5 4 -10
9 -10 23 0 162 -104 231 -172 85 -85 150 -158 150 -170 0 -4 3 -8 8 -8 4 0 13
-15 21 -32 8 -18 21 -42 30 -53 9 -11 22 -31 29 -44 8 -13 22 -39 33 -57 10
-19 29 -51 40 -71 12 -21 30 -50 40 -65 11 -14 19 -30 19 -35 0 -4 12 -21 28
-38 29 -32 77 -114 70 -120 -2 -3 -22 4 -44 15 -60 30 -190 60 -258 60 -53 0
-171 -18 -381 -60 -179 -35 -185 -37 -185 -81 0 -52 82 -73 217 -54 26 4 108
28 182 52 211 71 295 69 413 -10 34 -23 73 -50 87 -59 14 -10 36 -18 49 -18
12 0 25 -8 29 -17 3 -10 52 -88 108 -173 181 -274 233 -390 252 -560 3 -25 10
-51 16 -59 7 -8 13 -78 15 -185 1 -94 5 -181 8 -193 4 -23 4 -23 222 -23 119
0 234 -5 254 -10 20 -6 50 -26 67 -45 48 -55 53 -92 41 -282 -6 -93 -15 -260
-20 -373 -5 -113 -18 -374 -29 -580 -27 -492 -28 -454 12 -487 41 -36 117
-111 141 -142 142 -181 189 -293 292 -706 53 -213 60 -252 48 -264 -11 -12
-71 -16 -324 -19 -224 -3 -315 -1 -323 7 -8 8 -8 11 1 11 16 0 52 60 52 87 0
22 -1 22 -47 -7 -77 -48 -131 -53 -513 -46 -190 3 -1126 9 -2080 12 l-1735 5
-43 22 c-24 12 -57 36 -73 55 l-29 33 0 -53 c0 -45 5 -59 30 -86 24 -27 27
-34 14 -39 -30 -11 -602 3 -617 16 -17 13 -6 70 58 316 55 210 73 271 89 304
9 16 16 35 16 41 0 18 80 180 114 230 43 64 71 96 148 171 l68 67 0 153 c0 84
-4 180 -9 213 -6 34 -15 176 -21 316 -6 140 -16 311 -21 380 -5 69 -12 226
-15 350 -8 254 -6 265 63 317 l36 28 246 3 c135 2 250 8 256 13 5 5 27 9 50 9
l41 0 1 90 c1 49 6 104 12 122 5 18 17 65 25 103 8 39 35 147 59 240 32 120
47 201 51 275 11 160 44 437 65 549 36 182 95 326 200 486 74 112 271 300 400
380 9 6 34 22 56 36 59 38 174 98 209 109 17 5 49 6 71 3 22 -4 213 -8 425 -9z
m-1876 -1551 c-4 -27 -13 -70 -21 -98 -8 -27 -14 -65 -14 -83 1 -19 -8 -70
-19 -114 -11 -44 -20 -82 -20 -84 0 -2 -4 -4 -9 -4 -16 0 -32 174 -21 231 24
120 32 145 57 172 41 42 56 36 47 -20z"/>
<path d="M2780 4691 c-69 -22 -87 -32 -141 -77 -96 -80 -114 -145 -22 -85 105
70 151 86 243 86 73 -1 102 -6 210 -43 145 -50 202 -62 286 -63 80 -1 124 20
124 60 0 44 -6 47 -185 81 -334 65 -419 72 -515 41z"/>
<path d="M2891 4373 c-13 -3 -31 -11 -38 -19 -8 -8 -30 -14 -48 -14 -19 0 -38
-6 -42 -14 -12 -21 -69 -46 -103 -46 -31 0 -36 -6 -57 -75 -4 -16 -14 -31 -21
-31 -6 -1 -16 -2 -22 -3 -5 0 -10 -8 -10 -16 0 -8 5 -15 10 -15 6 0 10 -5 10
-12 0 -6 -3 -8 -7 -5 -3 4 -15 0 -25 -10 -11 -9 -18 -11 -18 -5 0 7 -7 12 -16
12 -9 0 -23 8 -30 18 -13 16 -13 16 -14 -2 0 -10 11 -29 25 -42 29 -26 32 -42
10 -50 -17 -7 -29 -2 -62 22 -20 15 -21 14 -16 -6 3 -12 17 -26 32 -31 24 -10
41 -26 41 -41 0 -8 -69 2 -92 13 -18 10 -31 -1 -20 -17 17 -24 64 -43 125 -49
l66 -7 7 28 c17 71 95 187 159 237 20 16 66 43 103 59 62 29 76 31 177 32 91
0 121 -4 175 -23 133 -48 236 -141 292 -264 20 -44 35 -64 41 -58 12 12 -5 84
-35 150 -24 53 -107 152 -145 172 -15 8 -35 22 -45 31 -9 9 -33 21 -53 27 -21
5 -42 17 -49 25 -8 12 -37 17 -116 20 -58 3 -118 7 -135 9 -16 3 -41 3 -54 0z"/>
<path d="M4888 4375 c-3 -4 -57 -8 -120 -11 -84 -3 -116 -8 -124 -19 -6 -8
-31 -22 -55 -30 -24 -9 -48 -21 -54 -28 -5 -6 -22 -18 -37 -26 -38 -20 -122
-118 -146 -172 -52 -111 -53 -208 -2 -109 16 30 36 70 45 88 23 43 117 127
176 158 150 76 313 81 453 16 88 -41 157 -114 212 -224 l45 -90 57 6 c63 8
122 33 122 54 0 12 -37 11 -92 -5 -36 -9 -15 31 23 46 15 5 29 19 32 31 5 20
4 21 -16 6 -33 -24 -45 -29 -62 -22 -22 8 -19 24 10 50 14 13 25 31 25 40 0
14 -6 13 -34 -9 -30 -23 -34 -24 -47 -9 -7 9 -13 26 -14 38 0 14 -6 21 -20 21
-13 0 -22 10 -28 30 -21 69 -26 75 -57 75 -34 0 -91 25 -103 46 -5 8 -25 14
-47 14 -23 0 -42 6 -47 14 -9 15 -84 31 -95 21z"/>
<path d="M2690 4330 c0 -5 9 -10 21 -10 11 0 17 5 14 10 -3 6 -13 10 -21 10
-8 0 -14 -4 -14 -10z"/>
<path d="M5115 4330 c-3 -5 3 -10 14 -10 12 0 21 5 21 10 0 6 -6 10 -14 10 -8
0 -18 -4 -21 -10z"/>
<path d="M2941 4230 c-29 -16 -65 -39 -78 -52 -82 -76 -109 -238 -57 -342 31
-63 62 -95 111 -120 21 -10 46 -22 55 -27 23 -12 38 -11 38 1 0 6 -5 10 -12
10 -29 0 -118 92 -118 122 0 3 26 -9 57 -28 48 -29 66 -34 118 -34 50 0 69 5
107 29 69 44 98 88 111 170 6 39 15 67 20 64 18 -11 48 -94 42 -116 -5 -17 -4
-19 4 -7 6 8 11 41 11 74 0 103 -68 214 -158 256 -15 7 -35 16 -44 21 -10 5
-48 9 -85 8 -55 0 -78 -6 -122 -29z m33 -81 c13 -7 30 -25 37 -41 27 -65 -52
-114 -115 -72 -47 30 -29 103 29 117 11 2 21 5 22 6 1 0 13 -4 27 -10z"/>
<path d="M4690 4251 c-8 -5 -28 -15 -45 -22 -51 -24 -111 -92 -134 -153 -51
-137 -6 -283 109 -355 50 -32 110 -49 110 -32 0 6 -7 11 -16 11 -24 0 -70 36
-93 74 -12 18 -21 36 -21 40 0 3 24 -7 53 -24 92 -52 183 -39 266 35 46 42 76
121 69 181 -2 19 0 33 6 31 18 -6 46 -72 46 -112 0 -29 3 -36 10 -25 14 21 12
119 -3 160 -32 89 -70 131 -158 176 -38 19 -63 24 -116 23 -37 0 -75 -4 -83
-8z m8 -116 c44 -50 18 -115 -45 -115 -38 0 -73 29 -73 61 0 26 52 79 77 79
11 0 29 -11 41 -25z"/>
</g>
</svg>
